<?xml version="1.0" encoding="utf-8"?>
<!-- Generator: Adobe Illustrator 16.0.0, SVG Export Plug-In . SVG Version: 6.00 Build 0)  -->
<!DOCTYPE svg PUBLIC "-//W3C//DTD SVG 1.1//EN" "http://www.w3.org/Graphics/SVG/1.1/DTD/svg11.dtd">
<svg version="1.1" id="Layer_1" xmlns="http://www.w3.org/2000/svg" xmlns:xlink="http://www.w3.org/1999/xlink" x="0px" y="0px"
	 width="385.438px" height="398.667px" viewBox="0 0 385.438 398.667" enable-background="new 0 0 385.438 398.667"
	 xml:space="preserve">
<g>
	
		<radialGradient id="SVGID_1_" cx="229.1855" cy="-672.5776" r="42.691" gradientTransform="matrix(0.4716 -0.8146 -0.8186 -0.4677 53.4917 228.8684)" gradientUnits="userSpaceOnUse">
		<stop  offset="0" style="stop-color:#066301"/>
		<stop  offset="1" style="stop-color:#4C6520"/>
	</radialGradient>
	<path fill="url(#SVGID_1_)" d="M672.191,356.75c0,0,17.528,29.31,54.725,16.924c37.193-12.384,33.355-5.755,36.446-3.438
		c3.091,2.318-29.957-43.026-56.828-36.323s-32.565,15.58-36.536,17.174c-3.965,1.59-12.119-2.514-11.398-3.757
		C659.316,346.084,651.982,351.821,672.191,356.75z"/>
	<path fill="none" stroke="#1A953B" stroke-miterlimit="10" d="M706.542,350.981c0,0,27.172-4.666,34.717,5.869"/>
	
		<radialGradient id="SVGID_2_" cx="1044.6719" cy="188.4858" r="80.1328" gradientTransform="matrix(0.9342 0.1386 -0.1407 0.929 -373.3139 -16.3063)" gradientUnits="userSpaceOnUse">
		<stop  offset="0" style="stop-color:#4C7201"/>
		<stop  offset="1" style="stop-color:#1F6520"/>
	</radialGradient>
	<path fill="url(#SVGID_2_)" d="M558.602,204.162c0,0-17.135,18.553-19.453,37.797c-2.317,19.245,3.697,18.951,9.146,10.559
		c5.449-8.394,7.33,18.596-6.4,34.367c-13.729,15.771-22.217,40.037-5.875,28.81c16.344-11.229,10.756,9.903,0.065,21.378
		c-10.69,11.473-1.687,34.771,7.198,19.469c8.884-15.303,8.254,12.503,4.018,20.776c-4.24,8.276-17.088,28.331-0.455,10.023
		c16.629-18.308,15.381-29.772,20.14-29.659s-3.271,1.89,12.372,8.958c15.643,7.069,38.065,0.897,34.945-6.096
		c-3.118-6.991,3.016-12.019-12.251-13.688c-15.269-1.671-15.114-10.552-5.015-10.241c10.101,0.31,20.606,1.868-1.887-15.121
		c-22.499-16.988-24.531-35.098-15.341-24.83c9.188,10.266,26.94,3.402,5.907-19.306c-21.031-22.708-21.146-29.848-13.092-23.905
		c8.053,5.943,17.839-7.436,3.823-25.248C562.436,210.391,556.683,220.773,558.602,204.162z"/>
	
		<radialGradient id="SVGID_3_" cx="-501.7808" cy="482.7095" r="62.532" gradientTransform="matrix(-0.9305 0.1639 0.1635 0.9249 114.3677 -48.5507)" gradientUnits="userSpaceOnUse">
		<stop  offset="0" style="stop-color:#747201"/>
		<stop  offset="1" style="stop-color:#516520"/>
	</radialGradient>
	<path fill="url(#SVGID_3_)" d="M687.447,295.157c1.465-2.078,15.018-28.801-12.234-37.953
		c-27.254-9.154-18.117,18.357-18.117,18.357s-11.542-20.412-30.41-2.832c-18.862,17.578-15.703,28.549-12.711,31.66
		c2.992,3.114-19.148,2.162-11.263,22.612c7.89,20.452,30.373,26.806,39.886,18.456c9.51-8.348-3.336,36.384,32.842,26.977
		c36.182-9.405,25.502-23.906,26.311-31.934c0.807-8.029,26.361-11.926,14.234-42.551
		C703.857,267.326,687.447,295.157,687.447,295.157z"/>
	<path fill="#545E36" d="M667.025,309.51c0,0-4.439-5.814-7.69,1.355c-3.247,7.17,5.646,10.552,9.526,9.043
		C672.744,318.399,667.025,309.51,667.025,309.51z"/>
	<path fill="#72A454" d="M641.74,336.114c0,0,9.559-34.182-4.014-40.836c-13.572-6.652-8.55,5.824-8.55,5.824
		s-0.647-12.287-4.587-19.878c-3.939-7.589-13.605-8.884-16.903-16.776c-3.299-7.891-3.231-20.066-9.618-20.207
		c-6.389-0.141-12.057-8.266-14.969-1.049c-2.908,7.217-9.061,12.363-7.551,18.398s6.174,10.136,6.984,14.701
		s-4.501,4.818,4.242,14.643c8.742,9.825-8.662,2.729-11.18,8.863c-2.518,6.131-6.586,8.047,4.047,15.184
		c10.635,7.137,19.107,12.591,18.287,16.574c-0.821,3.986-9.973-3.849-16.18-4.524c-6.207-0.675-10.103,1.608-5.695,8.978
		c4.407,7.371,0.964,5.844,12.883,12.824c11.918,6.98,15.164,9.05,14.322,13.945c-0.844,4.893-9.412,27.818,5.506,15.396
		c14.92-12.422,15.945-15.028,18.498-7.748c2.555,7.28,3.797,8.945,4.199,15.5c0.398,6.562,2.936,15.708,5.475,8.666
		c2.537-7.041-5.173-26.346-7.426-33.831c-2.25-7.485-4.798-8.085,3.648-9.364c8.445-1.277,6.543,9.962,16.089,0.521
		c9.547-9.44,14.019-20.99,10.792-23.97C656.813,324.968,650.76,341.761,641.74,336.114z"/>
	<path fill="#4A8336" d="M624.4,356.38c0,0-3.746-23.423-7.24-30.772c-3.492-7.35-12.098-26.235-13.732-33.563
		c-1.637-7.324-5.932-22.842-8.729-27.82c-2.798-4.98-6.673-7.354-2.47,2.9c4.205,10.255,5.391,11.327,7.064,21.549
		c1.676,10.221,11.367,28.696,14.136,34.428c2.767,5.73,3.56,7.396,4.769,14.166s1.234,17.387,3.359,20.451
		C623.684,360.783,624.4,356.38,624.4,356.38z"/>
	<path fill="#A4A454" d="M652.59,357.352c0,0,9.785-6.443,7.862-11.008c-1.919-4.564-3.38-0.388-3.38-0.388s2.504-3.191,3.175-5.921
		c0.671-2.732-1.444-5.127-0.55-7.796c0.895-2.668,3.555-5.679,2-7.085c-1.553-1.404-1.195-4.639-3.482-3.471
		c-2.285,1.17-4.928,1.129-5.863,2.953c-0.934,1.822-0.669,3.843-1.459,5.15c-0.789,1.309-2.16,0.232-2.125,4.548
		c0.034,4.317-2.738-1.179-4.693-0.196c-1.955,0.984-3.379,0.588-2.292,4.643s2.003,7.227,0.936,8.041s-1.636-3.096-3.026-4.594
		c-1.394-1.5-2.855-1.77-3.36,1.008c-0.508,2.777-1.028,1.658,0.411,5.949c1.438,4.292,1.793,5.501,0.521,6.537
		c-1.27,1.035-8.367,4.895-1.975,5.008c6.393,0.114,7.211-0.315,6.265,2.041c-0.946,2.358-0.999,3.038-2.321,4.754
		c-1.326,1.714-2.683,4.53-0.523,3.326c2.156-1.206,4.436-7.656,5.5-9.998c1.066-2.344,0.565-3.039,2.934-1.547
		c2.373,1.495-0.537,3.881,3.879,3.582c4.412-0.298,8.027-2.21,7.873-3.641C658.742,357.815,653.598,360.691,652.59,357.352z"/>
	<path fill="#5E8336" d="M643.893,358.668c0,0,4.152-6.624,4.882-9.199c0.729-2.574,2.694-9.114,3.88-11.285
		c1.183-2.171,3.486-6.947,3.872-8.785c0.387-1.837-0.059-3.258-1.241,0.191c-1.184,3.449-1.121,3.971-2.926,6.869
		c-1.803,2.898-3.408,9.569-3.965,11.585c-0.559,2.021-0.723,2.604-1.891,4.545c-1.17,1.941-3.469,4.585-3.606,5.802
		C642.758,359.609,643.893,358.668,643.893,358.668z"/>
	<g>
		
			<radialGradient id="SVGID_4_" cx="-261.3545" cy="805.6265" r="44.3607" fx="-272.5578" fy="806.2261" gradientTransform="matrix(-0.0831 -0.9356 0.9411 -0.0839 -238.7133 175.371)" gradientUnits="userSpaceOnUse">
			<stop  offset="0" style="stop-color:#2B7C23"/>
			<stop  offset="0.2726" style="stop-color:#2F7B23"/>
			<stop  offset="0.528" style="stop-color:#3A7622"/>
			<stop  offset="0.7755" style="stop-color:#4D6F21"/>
			<stop  offset="1" style="stop-color:#656520"/>
		</radialGradient>
		<path fill="url(#SVGID_4_)" d="M565.258,367.195c0,0-28.321,19.313-56.836-7.4c-28.513-26.716-27.839-19.103-31.625-18.282
			c-3.789,0.818,45.411-26.594,66.963-9.332c21.55,17.264,22.959,27.69,25.887,30.787c2.927,3.096,12.064,2.762,11.938,1.334
			C581.463,362.873,585.689,371.13,565.258,367.195z"/>
		<path fill="none" stroke="#1A953B" stroke-miterlimit="10" d="M557.902,359.818c0,0-24.441-23.021-52.775-20.663"/>
	</g>
	<g>
		
			<radialGradient id="SVGID_5_" cx="-327.7427" cy="594.8892" r="27.0126" fx="-334.5647" fy="595.2543" gradientTransform="matrix(-0.9215 0.2082 0.2081 0.9159 124.3603 -90.2394)" gradientUnits="userSpaceOnUse">
			<stop  offset="0" style="stop-color:#667C23"/>
			<stop  offset="0.2399" style="stop-color:#627D23"/>
			<stop  offset="0.4647" style="stop-color:#578122"/>
			<stop  offset="0.6834" style="stop-color:#448722"/>
			<stop  offset="0.897" style="stop-color:#2A9021"/>
			<stop  offset="1" style="stop-color:#1A9520"/>
		</radialGradient>
		<path fill="url(#SVGID_5_)" d="M570.695,382.515c0,0,1.76-9.612-9.395-6.58c0,0,3.129-8.896-7.869-7.436
			c-10.996,1.461-6.881,10.513-6.881,10.513s-8.967-10.004-13.833,0.31s1.881,8.277,1.881,8.277s-12.203-10.664-11.742,1.725
			c0.107,2.886,3.926,4.393,3.926,4.393s13.515,5.656,17.171-1.064c0,0,16.715,5.438,24.045-0.826
			C575.333,385.56,570.695,382.515,570.695,382.515z"/>
		<path fill="none" stroke="#1A953B" stroke-miterlimit="10" d="M550.711,390.954c0,0,13.911-0.827,14.699-9.876"/>
		<path fill="none" stroke="#1A953B" stroke-miterlimit="10" d="M550.592,388.898c0,0,6.553-7.379,3.666-14.658"/>
		<path fill="none" stroke="#1A953B" stroke-miterlimit="10" d="M546.453,389.145c0,0-8.811-2.289-8.277-9.261"/>
		<path fill="none" stroke="#1A953B" stroke-miterlimit="10" d="M541.5,391.5c0,0-9.412,3.563-13.723-2.373"/>
	</g>
</g>
<g>
	
		<radialGradient id="SVGID_6_" cx="113.5244" cy="-811.1958" r="48.128" gradientTransform="matrix(0.4827 -0.8758 -0.8758 -0.4827 108.2187 269.7987)" gradientUnits="userSpaceOnUse">
		<stop  offset="0" style="stop-color:#066301"/>
		<stop  offset="1" style="stop-color:#4C6520"/>
	</radialGradient>
	<path fill="url(#SVGID_6_)" d="M825.764,562.81c0,0,21.576,34.809,65.676,19.172c44.096-15.636,39.668-7.602,43.408-4.884
		c3.74,2.716-36.717-51.01-68.627-42.407c-31.909,8.603-38.5,19.374-43.202,21.368c-4.694,1.992-14.517-2.764-13.685-4.271
		C810.16,550.281,801.539,557.316,825.764,562.81z"/>
	<path fill="none" stroke="#1A953B" stroke-miterlimit="10" d="M866.617,555.173c0,0,32.314-6.164,41.555,6.32"/>
	
		<radialGradient id="SVGID_7_" cx="1112.376" cy="342.2954" r="90.3389" gradientTransform="matrix(0.9915 0.1303 -0.1303 0.9915 -348.4107 16.7034)" gradientUnits="userSpaceOnUse">
		<stop  offset="0" style="stop-color:#4C7201"/>
		<stop  offset="1" style="stop-color:#1F6520"/>
	</radialGradient>
	<path fill="url(#SVGID_7_)" d="M686.779,382.069c0,0-20.022,22.619-22.354,45.762c-2.328,23.142,4.84,22.665,11.152,12.479
		c6.311-10.186,9.166,22.163-6.857,41.373c-16.023,19.213-25.602,48.508-6.357,34.694c19.246-13.814,13.059,11.661,0.563,25.652
		c-12.496,13.989-1.225,41.761,9.028,23.213s10.132,14.832,5.263,24.848c-4.869,10.02-19.744,34.354-0.314,12.038
		c19.428-22.316,17.678-36.047,23.357-36.011c5.68,0.037-3.857,2.336,14.965,10.493c18.824,8.157,45.437,0.285,41.557-8.042
		c-3.88-8.324,3.325-14.484-14.928-16.171c-18.254-1.688-18.273-12.347-6.215-12.184c12.059,0.161,24.629,1.813-2.596-18.105
		c-27.227-19.92-30.063-41.608-18.865-29.479c11.197,12.128,32.221,3.523,6.611-23.29c-25.607-26.813-25.905-35.376-16.162-28.413
		c9.744,6.965,21.116-9.293,3.991-30.378C691.494,389.463,684.866,402.042,686.779,382.069z"/>
	
		<radialGradient id="SVGID_8_" cx="-527.9688" cy="653.6587" r="70.4961" gradientTransform="matrix(-0.9815 0.1916 0.1916 0.9815 167.0725 -26.616)" gradientUnits="userSpaceOnUse">
		<stop  offset="0" style="stop-color:#747201"/>
		<stop  offset="1" style="stop-color:#516520"/>
	</radialGradient>
	<path fill="url(#SVGID_8_)" d="M842.57,488.582c1.701-2.524,17.266-34.873-15.459-45.289
		c-32.723-10.417-21.199,22.407-21.199,22.407s-14.232-24.256-36.347-2.769c-22.106,21.488-18.089,34.587-14.447,38.258
		c3.64,3.675-22.798,2.991-12.927,27.369c9.877,24.377,36.846,31.533,48.006,21.316c11.158-10.215-3.156,43.729,39.796,31.688
		c42.956-12.038,29.886-29.217,30.669-38.867c0.781-9.651,31.184-14.858,16.02-51.356
		C861.521,454.843,842.57,488.582,842.57,488.582z"/>
	<path fill="#545E36" d="M818.529,506.23c0,0-5.428-6.885-9.146,1.786c-3.712,8.673,6.976,12.545,11.572,10.653
		C825.555,516.779,818.529,506.23,818.529,506.23z"/>
	<path fill="#72A454" d="M788.965,538.681c0,0,10.629-41.218-5.714-48.92c-16.346-7.7-10.069,7.167-10.069,7.167
		s-1.051-14.73-5.924-23.759c-4.872-9.025-16.435-10.377-20.549-19.779c-4.113-9.401-4.309-24.013-11.934-24.049
		s-14.571-9.667-17.883-0.946c-3.306,8.72-10.531,15.023-8.592,22.234c1.938,7.211,7.596,12.034,8.666,17.495
		c1.072,5.462-5.262,5.877,5.395,17.483c10.652,11.609-10.274,3.456-13.14,10.868c-2.864,7.411-7.677,9.794,5.173,18.138
		c12.85,8.341,23.084,14.71,22.195,19.509c-0.891,4.8-11.987-4.412-19.408-5.095c-7.422-0.68-12.017,2.141-6.592,10.893
		c5.426,8.753,1.283,6.991,15.662,15.12c14.377,8.13,18.297,10.545,17.402,16.438c-0.895,5.889-10.6,33.576,6.92,18.36
		s18.683-18.366,21.895-9.683c3.213,8.685,4.732,10.655,5.359,18.514c0.625,7.863,3.86,18.788,6.729,10.285
		c2.869-8.502-6.768-31.508-9.624-40.443c-2.855-8.935-5.908-9.603,4.139-11.312c10.048-1.71,8.034,11.817,19.21,0.289
		c11.176-11.527,16.248-25.48,12.332-28.989C806.696,524.993,799.854,545.27,788.965,538.681z"/>
	<path fill="#4A8336" d="M768.734,563.361c0,0-5-28.028-9.336-36.777c-4.333-8.746-15.027-31.229-17.145-39.987
		c-2.119-8.756-7.595-27.287-11.046-33.204c-3.45-5.916-8.127-8.684-2.88,3.533c5.248,12.218,6.688,13.48,8.916,25.711
		c2.23,12.229,14.213,34.199,17.646,41.02c3.43,6.818,4.414,8.801,6.01,16.9c1.596,8.099,1.865,20.836,4.472,24.47
		C767.979,568.659,768.734,563.361,768.734,563.361z"/>
	<path fill="#A4A454" d="M802.389,563.94c0,0,11.529-7.936,9.133-13.373c-2.393-5.437-4.043-0.394-4.043-0.394
		s2.918-3.883,3.656-7.172c0.736-3.292-1.842-6.122-0.834-9.344c1.006-3.22,4.111-6.888,2.227-8.543
		c-1.885-1.653-1.531-5.542-4.234-4.093c-2.701,1.452-5.854,1.458-6.93,3.666c-1.072,2.206-0.71,4.624-1.623,6.211
		c-0.912,1.586-2.573,0.322-2.434,5.501c0.141,5.18-3.293-1.358-5.604-0.137s-4.018,0.774-2.629,5.618
		c1.389,4.842,2.554,8.631,1.299,9.63c-1.257,0.998-2.021-3.682-3.716-5.451c-1.696-1.771-3.445-2.063-3.985,1.28
		c-0.543,3.343-1.191,2.012,0.623,7.132c1.814,5.119,2.267,6.563,0.771,7.832c-1.492,1.27-9.873,6.047-2.242,6.05
		c7.63,0.004,8.598-0.526,7.521,2.32c-1.075,2.849-1.123,3.666-2.662,5.752c-1.543,2.085-3.098,5.494-0.549,4.003
		c2.545-1.491,5.117-9.279,6.335-12.112c1.219-2.835,0.604-3.658,3.466-1.915c2.864,1.743-0.554,4.665,4.707,4.216
		c5.26-0.449,9.529-2.819,9.313-4.534C809.74,564.369,803.668,567.925,802.389,563.94z"/>
	<path fill="#5E8336" d="M792.043,565.702c0,0,4.805-8.035,5.616-11.141s3.007-10.994,4.373-13.623
		c1.362-2.63,4.003-8.41,4.421-10.622c0.42-2.213-0.143-3.909-1.477,0.255c-1.334,4.165-1.248,4.787-3.335,8.304
		c-2.085,3.517-3.849,11.554-4.469,13.985c-0.62,2.435-0.804,3.138-2.153,5.491c-1.352,2.354-4.033,5.574-4.171,7.038
		C790.711,566.852,792.043,565.702,792.043,565.702z"/>
	<g>
		
			<radialGradient id="SVGID_9_" cx="-432.9346" cy="829.9653" r="50.0109" fx="-445.5649" fy="830.6413" gradientTransform="matrix(-0.1067 -0.9943 0.9943 -0.1067 -202.1067 218.2462)" gradientUnits="userSpaceOnUse">
			<stop  offset="0" style="stop-color:#2B7C23"/>
			<stop  offset="0.2726" style="stop-color:#2F7B23"/>
			<stop  offset="0.528" style="stop-color:#3A7622"/>
			<stop  offset="0.7755" style="stop-color:#4D6F21"/>
			<stop  offset="1" style="stop-color:#656520"/>
		</radialGradient>
		<path fill="url(#SVGID_9_)" d="M698.414,577.568c0,0-33.354,23.765-67.979-7.698c-34.627-31.466-33.648-22.344-38.149-21.28
			c-4.499,1.059,53.581-32.857,79.686-12.591c26.103,20.268,28.021,32.749,31.583,36.406c3.563,3.652,14.457,3.062,14.274,1.351
			C717.652,572.043,722.881,581.865,698.414,577.568z"/>
		<path fill="none" stroke="#1A953B" stroke-miterlimit="10" d="M689.471,568.868c0,0-29.684-27.115-63.436-23.697"/>
	</g>
	<g>
		
			<radialGradient id="SVGID_10_" cx="-329.0991" cy="772.9673" r="30.4527" fx="-336.79" fy="773.3789" gradientTransform="matrix(-0.9711 0.2386 0.2386 0.9711 176.8115 -71.1742)" gradientUnits="userSpaceOnUse">
			<stop  offset="0" style="stop-color:#667C23"/>
			<stop  offset="0.2399" style="stop-color:#627D23"/>
			<stop  offset="0.4647" style="stop-color:#578122"/>
			<stop  offset="0.6834" style="stop-color:#448722"/>
			<stop  offset="0.897" style="stop-color:#2A9021"/>
			<stop  offset="1" style="stop-color:#1A9520"/>
		</radialGradient>
		<path fill="url(#SVGID_10_)" d="M705.25,595.837c0,0,1.881-11.569-11.358-7.698c0,0,3.53-10.74-9.557-8.759
			c-13.087,1.98-7.972,12.758-7.972,12.758s-10.927-11.818-16.498,0.659c-5.572,12.478,2.432,9.894,2.432,9.894
			s-14.803-12.543-13.972,2.313c0.193,3.461,4.784,5.189,4.784,5.189s16.253,6.509,20.462-1.635c0,0,20.067,6.176,28.671-1.492
			C710.852,599.397,705.25,595.837,705.25,595.837z"/>
		<path fill="none" stroke="#1A953B" stroke-miterlimit="10" d="M681.598,606.381c0,0,16.577-1.283,17.313-12.157"/>
		<path fill="none" stroke="#1A953B" stroke-miterlimit="10" d="M681.406,603.917c0,0,7.652-8.991,4.043-17.667"/>
		<path fill="none" stroke="#1A953B" stroke-miterlimit="10" d="M676.477,604.298c0,0-10.565-2.563-10.086-10.939"/>
		<path fill="none" stroke="#1A953B" stroke-miterlimit="10" d="M670.619,607.23c0,0-11.15,4.469-16.426-2.563"/>
	</g>
</g>
<radialGradient id="SVGID_11_" cx="600.3789" cy="-358.3862" r="48.128" gradientTransform="matrix(0.6022 -0.7984 -0.7984 -0.6022 49.621 238.9553)" gradientUnits="userSpaceOnUse">
	<stop  offset="0" style="stop-color:#066301"/>
	<stop  offset="1" style="stop-color:#4C6520"/>
</radialGradient>
<path fill="url(#SVGID_11_)" d="M649.951-30.46c0,0,16.416,37.521,62.288,28.306c45.87-9.215,40.346-1.893,43.661,1.33
	c3.318,3.22-29.101-55.708-61.907-51.724c-32.807,3.983-40.862,13.709-45.8,15.016c-4.93,1.306-13.977-4.797-12.939-6.17
	C636.285-45.078,626.754-39.339,649.951-30.46z"/>
<path fill="none" stroke="#1A953B" stroke-miterlimit="10" d="M691.477-32.218c0,0,32.861-1.512,40.235,12.159"/>
<radialGradient id="SVGID_12_" cx="-492.9805" cy="-10.3013" r="70.4963" gradientTransform="matrix(-0.9987 0.0503 0.0503 0.9987 149.9757 -46.0964)" gradientUnits="userSpaceOnUse">
	<stop  offset="0" style="stop-color:#747201"/>
	<stop  offset="1" style="stop-color:#516520"/>
</radialGradient>
<path fill="url(#SVGID_12_)" d="M677.131-101.549c2.042-2.257,22.042-32.067-8.87-47.025
	c-30.912-14.959-24.166,19.169-24.166,19.169s-10.645-26.031-35.587-7.901c-24.934,18.129-22.817,31.666-19.733,35.818
	c3.08,4.153-22.992-0.277-16.684,25.255c6.315,25.533,31.995,36.447,44.493,27.918c12.495-8.525-9.334,42.838,34.892,37.02
	c44.23-5.815,33.732-24.676,35.878-34.117c2.144-9.443,32.977-10.279,23.151-48.561C700.68-132.253,677.131-101.549,677.131-101.549
	z"/>
<path fill="#545E36" d="M650.826-87.493c0,0-4.395-7.586-9.306,0.469c-4.905,8.058,5.123,13.408,9.941,12.189
	C656.282-76.054,650.826-87.493,650.826-87.493z"/>
<path fill="#A4A454" d="M626.654-32.661c0,0,12.54-6.217,10.938-11.939c-1.596-5.722-3.945-0.965-3.945-0.965
	s3.438-3.428,4.637-6.58c1.197-3.154-0.952-6.321,0.502-9.367c1.454-3.044,5.049-6.234,3.417-8.14
	c-1.63-1.903-0.729-5.703-3.609-4.651c-2.879,1.053-6.002,0.609-7.379,2.643c-1.376,2.033-1.361,4.478-2.49,5.918
	c-1.128,1.44-2.593-0.046-3.189,5.101c-0.598,5.147-3.068-1.813-5.527-0.932c-2.461,0.881-4.088,0.196-3.4,5.187
	c0.687,4.991,1.302,8.906-0.083,9.717s-1.478-3.931-2.903-5.922c-1.428-1.994-3.118-2.532-4.128,0.7
	c-1.012,3.232-1.463,1.822-0.395,7.148c1.068,5.325,1.311,6.818-0.349,7.862c-1.657,1.045-10.632,4.584-3.08,5.67
	c7.553,1.088,8.586,0.699,7.116,3.365c-1.469,2.667-1.633,3.469-3.452,5.315c-1.824,1.845-3.847,4.998-1.111,3.885
	c2.731-1.115,6.385-8.459,7.991-11.091c1.608-2.633,1.118-3.534,3.702-1.403c2.588,2.133-1.21,4.54,4.062,4.843
	c5.27,0.301,9.833-1.438,9.861-3.166C633.87-31.192,627.354-28.534,626.654-32.661z"/>
<path fill="#5E8336" d="M616.162-32.386c0,0,5.897-7.271,7.142-10.23c1.245-2.959,4.539-10.455,6.264-12.864
	c1.722-2.409,5.156-7.756,5.886-9.887c0.729-2.13,0.412-3.89-1.499,0.043s-1.915,4.563-4.479,7.747
	c-2.563,3.184-5.452,10.889-6.41,13.208c-0.961,2.321-1.24,2.991-2.911,5.13c-1.672,2.139-4.785,4.945-5.128,6.374
	C614.681-31.437,616.162-32.386,616.162-32.386z"/>
<g>
	
		<radialGradient id="SVGID_13_" cx="225.5723" cy="738.1401" r="50.0112" fx="212.9419" fy="738.8161" gradientTransform="matrix(0.0356 -0.9994 0.9994 0.0356 -250.2371 143.8519)" gradientUnits="userSpaceOnUse">
		<stop  offset="0" style="stop-color:#2B7C23"/>
		<stop  offset="0.2726" style="stop-color:#2F7B23"/>
		<stop  offset="0.528" style="stop-color:#3A7622"/>
		<stop  offset="0.7755" style="stop-color:#4D6F21"/>
		<stop  offset="1" style="stop-color:#656520"/>
	</radialGradient>
	<path fill="url(#SVGID_13_)" d="M521.798-33.937c0,0-36.391,18.786-66.196-17.275c-29.807-36.064-30.135-26.896-34.74-26.482
		c-4.605,0.41,57.703-24.914,80.665-1.146c22.96,23.77,23.086,36.396,26.094,40.522c3.007,4.122,13.875,5.085,13.938,3.364
		C541.625-36.673,545.406-26.21,521.798-33.937z"/>
	<path fill="none" stroke="#1A953B" stroke-miterlimit="10" d="M514.181-43.819c0,0-25.531-31.056-59.427-32.465"/>
</g>
<g>
	
		<radialGradient id="SVGID_14_" cx="171.6787" cy="-741.9917" r="35.6656" gradientTransform="matrix(-0.5042 -0.8636 0.8636 -0.5042 449.8667 259.6365)" gradientUnits="userSpaceOnUse">
		<stop  offset="0" style="stop-color:#066301"/>
		<stop  offset="1" style="stop-color:#4C6520"/>
	</radialGradient>
	<path fill="url(#SVGID_14_)" d="M-242.118,485.276c0,0-15.348,26.182-48.304,15.408c-32.954-10.775-29.526-4.906-32.247-2.822
		c-2.722,2.08,26.266-38.463,50.062-32.676c23.797,5.788,28.878,13.646,32.398,15.038c3.514,1.391,10.703-2.313,10.059-3.415
		C-230.789,475.708-224.274,480.761-242.118,485.276z"/>
	<path fill="none" stroke="#1A953B" stroke-miterlimit="10" d="M-272.525,480.367c0,0-24.051-3.974-30.668,5.445"/>
	
		<radialGradient id="SVGID_15_" cx="1113.1777" cy="273.0522" r="66.946" gradientTransform="matrix(-0.988 0.1547 0.1547 0.988 900.0942 -4.6799)" gradientUnits="userSpaceOnUse">
		<stop  offset="0" style="stop-color:#4C7201"/>
		<stop  offset="1" style="stop-color:#1F6520"/>
	</radialGradient>
	<path fill="url(#SVGID_15_)" d="M-142.471,348.83c0,0,15.249,16.391,17.399,33.491c2.149,17.102-3.17,16.88-8.033,9.449
		c-4.862-7.43-6.385,16.588,5.839,30.525c12.223,13.939,19.855,35.466,5.345,25.586c-14.51-9.882-9.459,8.877,0.055,19.014
		c9.514,10.135,1.673,30.914-6.263,17.362c-7.936-13.554-7.235,11.173-3.444,18.505c3.792,7.332,15.258,25.086,0.455,8.912
		c-14.801-16.176-13.757-26.381-17.964-26.25c-4.208,0.131,2.9,1.66-10.895,8.047c-13.795,6.389-33.655,1.045-30.934-5.194
		s-2.729-10.67,10.763-12.253c13.492-1.586,13.311-9.482,4.381-9.141c-8.93,0.34-18.212,1.794,1.59-13.461
		c19.807-15.256,21.508-31.375,13.436-22.184c-8.071,9.189-23.806,3.201-5.324-17.133c18.479-20.332,18.542-26.682,11.45-21.346
		c-7.089,5.338-15.812-6.498-3.512-22.432C-145.828,354.395-140.688,363.59-142.471,348.83z"/>
	
		<radialGradient id="SVGID_16_" cx="-525.7988" cy="580.0171" r="52.2415" gradientTransform="matrix(0.9859 0.1673 -0.1673 0.9859 383.6954 -35.2314)" gradientUnits="userSpaceOnUse">
		<stop  offset="0" style="stop-color:#747201"/>
		<stop  offset="1" style="stop-color:#516520"/>
	</radialGradient>
	<path fill="url(#SVGID_16_)" d="M-255.932,430.593c-1.306-1.839-13.43-25.517,10.621-33.834
		c24.052-8.317,16.116,16.21,16.116,16.21s10.1-18.229,26.877-2.715c16.771,15.512,14.034,25.289,11.404,28.076
		c-2.629,2.788,16.944,1.798,10.079,20.037c-6.871,18.241-26.72,24.037-35.175,16.673c-8.453-7.362,3.14,32.337-28.9,24.206
		c-32.044-8.131-22.676-21.098-23.433-28.232c-0.755-7.136-23.373-10.436-12.81-37.752
		C-270.589,405.948-255.932,430.593-255.932,430.593z"/>
	<path fill="#545E36" d="M-237.797,443.228c0,0,3.894-5.2,6.807,1.155c2.908,6.355-4.937,9.421-8.377,8.104
		C-242.808,451.17-237.797,443.228-237.797,443.228z"/>
	<path fill="#72A454" d="M-215.3,466.725c0,0-8.632-30.34,3.336-36.346c11.967-6.004,7.592,5.125,7.592,5.125
		s0.507-10.932,3.952-17.709c3.442-6.775,11.984-7.988,14.859-15.029s2.752-17.869,8.4-18.035s10.618-7.429,13.23-1.029
		c2.608,6.4,8.076,10.938,6.773,16.314c-1.305,5.378-5.407,9.055-6.101,13.12c-0.692,4.065,4.005,4.257-3.675,13.052
		s7.674,2.371,9.932,7.81c2.259,5.437,5.867,7.114-3.498,13.53c-9.366,6.416-16.831,11.321-16.086,14.859
		c0.748,3.541,8.8-3.486,14.285-4.129c5.486-0.64,8.941,1.365,5.083,7.948s-0.822,5.203-11.325,11.489
		c-10.503,6.285-13.361,8.146-12.591,12.496c0.771,4.346,8.468,24.68-4.79,13.729s-14.177-13.264-16.397-6.771
		s-3.311,7.98-3.632,13.813c-0.318,5.838-2.514,13.99-4.796,7.744c-2.28-6.246,4.437-23.467,6.39-30.138
		c1.95-6.673,4.2-7.223-3.274-8.306c-7.476-1.08-5.735,8.903-14.226,0.566c-8.491-8.334-12.505-18.577-9.668-21.248
		C-228.687,456.911-223.246,471.807-215.3,466.725z"/>
	<path fill="#4A8336" d="M-199.861,484.638c0,0,3.191-20.856,6.242-27.416c3.05-6.56,10.561-23.412,11.968-29.938
		c1.41-6.525,5.127-20.354,7.574-24.801s5.862-6.582,2.199,2.564c-3.664,9.147-4.707,10.109-6.135,19.211
		c-1.428,9.101-9.901,25.596-12.319,30.712c-2.417,5.113-3.11,6.6-4.143,12.63c-1.035,6.029-1,15.471-2.865,18.211
		C-199.202,488.549-199.861,484.638-199.861,484.638z"/>
	<path fill="#A4A454" d="M-224.782,485.684c0,0-8.688-5.668-7.011-9.738c1.673-4.072,2.987-0.367,2.987-0.367
		s-2.231-2.822-2.839-5.246c-0.607-2.426,1.251-4.569,0.446-6.938c-0.806-2.366-3.173-5.027-1.807-6.287
		c1.365-1.26,1.032-4.134,3.062-3.109c2.027,1.025,4.364,0.972,5.2,2.588c0.836,1.615,0.612,3.413,1.317,4.572
		c0.704,1.157,1.911,0.191,1.903,4.031c-0.009,3.839,2.416-1.067,4.148-0.205c1.734,0.862,2.991,0.5,2.051,4.113
		c-0.939,3.613-1.733,6.441-0.784,7.158c0.948,0.717,1.429-2.765,2.652-4.105c1.224-1.344,2.515-1.593,2.977,0.875
		c0.463,2.467,0.918,1.468-0.332,5.295c-1.25,3.824-1.558,4.903-0.428,5.816c1.129,0.912,7.425,4.299,1.771,4.44
		c-5.651,0.143-6.379-0.233-5.528,1.856c0.848,2.09,0.899,2.695,2.077,4.213c1.182,1.516,2.396,4.012,0.48,2.955
		c-1.914-1.059-3.963-6.781-4.916-8.857c-0.954-2.077-0.515-2.698-2.602-1.355c-2.091,1.345,0.494,3.447-3.411,3.211
		c-3.904-0.238-7.111-1.914-6.981-3.189C-230.221,486.137-225.657,488.661-224.782,485.684z"/>
	<path fill="#5E8336" d="M-217.085,486.799c0,0-3.707-5.864-4.365-8.15c-0.658-2.285-2.429-8.09-3.489-10.012
		c-1.058-1.924-3.12-6.156-3.471-7.788c-0.352-1.632,0.035-2.897,1.1,0.162c1.063,3.061,1.012,3.524,2.622,6.091
		c1.609,2.566,3.064,8.487,3.567,10.278c0.505,1.792,0.652,2.31,1.695,4.028c1.044,1.72,3.092,4.056,3.219,5.138
		C-216.077,487.628-217.085,486.799-217.085,486.799z"/>
	<g>
		
			<radialGradient id="SVGID_17_" cx="-351.708" cy="859.1216" r="37.0613" fx="-361.0679" fy="859.6225" gradientTransform="matrix(0.0821 -0.9966 -0.9966 -0.0821 758.8212 200.4216)" gradientUnits="userSpaceOnUse">
			<stop  offset="0" style="stop-color:#2B7C23"/>
			<stop  offset="0.2726" style="stop-color:#2F7B23"/>
			<stop  offset="0.528" style="stop-color:#3A7622"/>
			<stop  offset="0.7755" style="stop-color:#4D6F21"/>
			<stop  offset="1" style="stop-color:#656520"/>
		</radialGradient>
		<path fill="url(#SVGID_17_)" d="M-147.506,493.874c0,0,25.146,16.994,50.221-6.949c25.074-23.945,24.518-17.17,27.87-16.465
			c3.353,0.702-40.296-23.359-59.263-7.866c-18.967,15.494-20.158,24.775-22.731,27.55c-2.571,2.771-10.652,2.533-10.549,1.262
			C-161.858,490.133-165.552,497.504-147.506,493.874z"/>
		<path fill="none" stroke="#1A953B" stroke-miterlimit="10" d="M-141.039,487.264c0,0,21.492-20.631,46.56-18.718"/>
	</g>
	<g>
		
			<radialGradient id="SVGID_18_" cx="-368.4702" cy="685.3979" r="22.5668" fx="-374.1695" fy="685.703" gradientTransform="matrix(0.9767 0.2145 -0.2145 0.9767 372.8586 -79.5356)" gradientUnits="userSpaceOnUse">
			<stop  offset="0" style="stop-color:#667C23"/>
			<stop  offset="0.2399" style="stop-color:#627D23"/>
			<stop  offset="0.4647" style="stop-color:#578122"/>
			<stop  offset="0.6834" style="stop-color:#448722"/>
			<stop  offset="0.897" style="stop-color:#2A9021"/>
			<stop  offset="1" style="stop-color:#1A9520"/>
		</radialGradient>
		<path fill="url(#SVGID_18_)" d="M-152.234,507.534c0,0-1.605-8.537,8.273-5.91c0,0-2.813-7.893,6.919-6.666
			c9.731,1.229,6.14,9.305,6.14,9.305s7.878-8.955,12.234,0.188c4.357,9.141-1.619,7.373-1.619,7.373s10.735-9.563,10.392,1.459
			c-0.081,2.566-3.448,3.93-3.448,3.93s-11.923,5.121-15.189-0.834c0,0-14.753,4.941-21.268-0.58
			C-156.318,510.274-152.234,507.534-152.234,507.534z"/>
		<path fill="none" stroke="#1A953B" stroke-miterlimit="10" d="M-134.52,514.911c0,0-12.304-0.646-13.048-8.689"/>
		<path fill="none" stroke="#1A953B" stroke-miterlimit="10" d="M-134.423,513.083c0,0-5.833-6.521-3.318-13.016"/>
		<path fill="none" stroke="#1A953B" stroke-miterlimit="10" d="M-130.763,513.274c0,0,7.779-2.092,7.271-8.289"/>
		<path fill="none" stroke="#1A953B" stroke-miterlimit="10" d="M-126.369,515.338c0,0,8.342,3.107,12.12-2.201"/>
	</g>
</g>
<g>
	
		<radialGradient id="SVGID_19_" cx="6.8223" cy="72.7568" r="43.5163" gradientTransform="matrix(-0.6807 -0.7325 0.7325 -0.6807 478.3591 208.4164)" gradientUnits="userSpaceOnUse">
		<stop  offset="0" style="stop-color:#066301"/>
		<stop  offset="1" style="stop-color:#4C6520"/>
	</radialGradient>
	<path fill="url(#SVGID_19_)" d="M569.035,144.2c0,0-11.293,35.266-53.404,31.222c-42.109-4.043-36.465,2.03-39.147,5.235
		c-2.687,3.203,21.02-52.797,50.896-52.25c29.876,0.548,38.021,8.55,42.583,9.269c4.555,0.718,12.126-5.608,11.067-6.748
		C579.975,129.787,589.078,134.068,569.035,144.2z"/>
	<path fill="none" stroke="#1A953B" stroke-miterlimit="10" d="M531.523,146.461c0,0-29.697,1.68-35.064,14.658"/>
	
		<radialGradient id="SVGID_20_" cx="266.6465" cy="123.1982" r="81.6823" gradientTransform="matrix(-0.9303 0.3669 0.3669 0.9303 859.9592 -147.8827)" gradientUnits="userSpaceOnUse">
		<stop  offset="0" style="stop-color:#4C7201"/>
		<stop  offset="1" style="stop-color:#1F6520"/>
	</radialGradient>
	<path fill="url(#SVGID_20_)" d="M651.307-44.823c0,0,22.525,15.45,29.645,35.238c7.117,19.788,0.727,20.942-7.045,13.392
		c-7.771-7.551-3.18,21.451,15.09,34.788c18.268,13.338,33.094,36.934,13.184,29.038c-19.912-7.896-8.896,13.092,5.133,22.625
		c14.029,9.531,10.234,36.363-2.828,22.342c-13.061-14.021-5.635,15.232,0.832,22.95c6.471,7.722,24.855,25.804,2.918,10.49
		c-21.936-15.314-23.414-27.742-28.387-26.465c-4.975,1.279,3.896,1.204-10.826,12.487c-14.721,11.284-39.793,10.215-38.215,2.06
		c1.576-8.153-6.094-11.976,9.547-17.458c15.643-5.483,13.322-14.838,2.779-12.05c-10.541,2.786-21.205,6.991-1.695-16.451
		c19.516-23.444,17.246-43.091,10.084-29.995c-7.162,13.094-27.49,10.156-10.906-18.979c16.58-29.136,14.965-36.713,7.943-28.468
		c-7.018,8.246-20.559-3.521-10.162-25.771C648.791-37.302,657.365-27.723,651.307-44.823z"/>
	
		<radialGradient id="SVGID_21_" cx="213.5039" cy="174.0796" r="63.7402" gradientTransform="matrix(0.9986 -0.0522 0.0522 0.9986 349.3637 -64.8683)" gradientUnits="userSpaceOnUse">
		<stop  offset="0" style="stop-color:#747201"/>
		<stop  offset="1" style="stop-color:#516520"/>
	</radialGradient>
	<path fill="url(#SVGID_21_)" d="M538.012,82.776c-2.045-1.842-22.793-26.803,3.627-43.117
		c26.419-16.314,23.509,15.005,23.509,15.005s7.165-24.397,31.277-10.399c24.103,14,23.452,26.37,21.063,30.39
		c-2.387,4.021,20.652-2.376,17.34,21.171c-3.316,23.549-25.403,35.742-37.434,29.227c-12.027-6.513,12.357,37.666-27.957,36.525
		c-40.32-1.139-32.623-19.074-35.427-27.367c-2.802-8.295-30.61-6.194-25.315-41.534C513.99,57.338,538.012,82.776,538.012,82.776z"
		/>
	<path fill="#545E36" d="M562.971,92.984c0,0,3.251-7.231,8.414-0.439c5.157,6.793-3.367,12.534-7.814,11.883
		C559.123,103.777,562.971,92.984,562.971,92.984z"/>
	<path fill="#72A454" d="M596.021,114.964c0,0-18.365-33.824-5.717-44.164s10.404,4.078,10.404,4.078s-2.31-13.152-0.015-22.14
		c2.294-8.985,12.14-12.707,13.686-21.857c1.548-9.147-1.485-22.007,5.194-23.711c6.68-1.704,10.662-11.676,15.479-4.752
		c4.813,6.924,12.531,10.868,12.412,17.618c-0.119,6.75-4.021,12.223-3.764,17.248s5.904,4-0.896,16.518
		c-6.799,12.52,9.77,0.778,13.908,6.652c4.139,5.872,8.881,6.907-0.561,17.043c-9.441,10.135-17.021,17.966-15.189,21.98
		c1.834,4.016,9.547-6.498,15.908-8.724c6.361-2.225,11.008-0.759,8.17,8.108c-2.84,8.868,0.408,6.415-10.422,16.698
		c-10.828,10.285-13.738,13.263-11.66,18.236c2.076,4.969,16.662,27.127-2.043,17.624c-18.705-9.505-20.416-12.014-21.328-3.692
		c-0.914,8.321-1.814,10.385-0.643,17.415c1.178,7.034,0.736,17.328-3.646,10.499c-4.38-6.829-0.973-29.123-0.426-37.587
		c0.543-8.464,3.076-9.719-6.112-9.015c-9.189,0.705-4.456,12.129-16.786,4.467c-12.333-7.66-19.842-18.786-17.176-22.723
		C577.465,106.846,587.914,123.132,596.021,114.964z"/>
	<path fill="#4A8336" d="M619.18,132.176c0,0-1.762-25.683,0.123-34.307c1.883-8.623,6.332-30.69,6.27-38.836
		c-0.063-8.146,0.678-25.601,2.406-31.548c1.729-5.947,5.225-9.4,3.301,2.467c-1.924,11.868-2.91,13.291-2.182,24.508
		c0.727,11.216-4.967,33.115-6.482,39.851c-1.514,6.733-1.941,8.688-1.564,16.142c0.375,7.455,2.934,18.687,1.443,22.447
		C621.006,136.657,619.18,132.176,619.18,132.176z"/>
	<path fill="#A4A454" d="M589.785,140.065c0,0-11.854-4.433-10.943-9.728c0.906-5.293,3.459-1.232,3.459-1.232
		s-3.409-2.766-4.778-5.489c-1.369-2.726,0.271-5.773-1.318-8.378c-1.589-2.604-5.118-5.14-3.826-7.005
		c1.29-1.863,0.128-5.197,2.815-4.518c2.688,0.68,5.455-0.007,6.881,1.695c1.426,1.701,1.639,3.901,2.787,5.092
		c1.148,1.191,2.328-0.281,3.342,4.292c1.014,4.574,2.592-1.914,4.885-1.35c2.295,0.564,3.695-0.202,3.539,4.351
		c-0.156,4.552-0.348,8.13,0.974,8.732c1.319,0.6,0.965-3.673,2.063-5.596c1.1-1.925,2.57-2.566,3.777,0.248
		c1.209,2.814,1.484,1.504,1.016,6.394c-0.469,4.888-0.548,6.254,1.041,7.039c1.588,0.786,9.987,3.14,3.295,4.816
		c-6.693,1.676-7.658,1.423-6.089,3.684c1.567,2.263,1.79,2.969,3.597,4.461c1.812,1.49,3.922,4.14,1.359,3.391
		c-2.561-0.75-6.525-7.017-8.214-9.236c-1.69-2.22-1.333-3.075-3.46-0.92c-2.131,2.158,1.508,3.971-3.205,4.731
		c-4.712,0.759-8.977-0.383-9.162-1.935C583.432,142.054,589.537,143.842,589.785,140.065z"/>
	<path fill="#5E8336" d="M599.247,139.341c0,0-5.977-5.994-7.369-8.541c-1.394-2.546-5.05-8.984-6.823-10.991
		c-1.772-2.007-5.356-6.499-6.209-8.348c-0.854-1.848-0.731-3.46,1.352-0.1c2.083,3.36,2.145,3.926,4.746,6.553
		c2.601,2.627,5.911,9.29,6.987,11.287c1.079,1.999,1.392,2.576,3.093,4.344c1.701,1.77,4.762,4.005,5.202,5.258
		C600.668,140.059,599.247,139.341,599.247,139.341z"/>
	<g>
		
			<radialGradient id="SVGID_22_" cx="-15.7715" cy="64.0063" r="45.2188" fx="-27.1916" fy="64.6175" gradientTransform="matrix(-0.1377 -0.9905 -0.9905 0.1377 766.9097 83.129)" gradientUnits="userSpaceOnUse">
			<stop  offset="0" style="stop-color:#2B7C23"/>
			<stop  offset="0.2726" style="stop-color:#2F7B23"/>
			<stop  offset="0.528" style="stop-color:#3A7622"/>
			<stop  offset="0.7755" style="stop-color:#4D6F21"/>
			<stop  offset="1" style="stop-color:#656520"/>
		</radialGradient>
		<path fill="url(#SVGID_22_)" d="M683.979,129.215c0,0,34.469,13.53,57.941-21.661c23.471-35.195,24.615-26.979,28.795-27.035
			c4.18-0.056-54.205-17.069-72.66,6.433c-18.451,23.503-17.395,34.873-19.719,38.862c-2.322,3.985-12.01,5.856-12.225,4.315
			C665.891,128.589,663.457,138.35,683.979,129.215z"/>
		<path fill="none" stroke="#1A953B" stroke-miterlimit="10" d="M689.914,119.623c0,0,20.09-30.295,50.447-34.699"/>
	</g>
	<g>
		
			<radialGradient id="SVGID_23_" cx="374.3789" cy="253.1187" r="27.5339" fx="367.4252" fy="253.4908" gradientTransform="matrix(1 -0.0041 0.0041 1 329.1072 -105.7356)" gradientUnits="userSpaceOnUse">
			<stop  offset="0" style="stop-color:#667C23"/>
			<stop  offset="0.2399" style="stop-color:#627D23"/>
			<stop  offset="0.4647" style="stop-color:#578122"/>
			<stop  offset="0.6834" style="stop-color:#448722"/>
			<stop  offset="0.897" style="stop-color:#2A9021"/>
			<stop  offset="1" style="stop-color:#1A9520"/>
		</radialGradient>
		<path fill="url(#SVGID_23_)" d="M681.99,146.74c0,0-4.189-9.736,8.273-9.244c0,0-5.453-8.646,6.461-9.779
			c11.916-1.133,9.791,9.442,9.791,9.442s6.994-12.764,14.617-3.041c7.625,9.724,0.037,9.213,0.037,9.213
			s10.232-14.249,12.762-1.035c0.588,3.078-3.057,5.6-3.057,5.6s-12.83,9.274-18.309,3.054c0,0-16.248,9.819-25.477,4.98
			C677.855,151.091,681.99,146.74,681.99,146.74z"/>
		<path fill="none" stroke="#1A953B" stroke-miterlimit="10" d="M705.047,150.801c0,0-14.822,2.511-17.852-6.867"/>
		<path fill="none" stroke="#1A953B" stroke-miterlimit="10" d="M704.676,148.598c0,0-8.686-6.208-7.422-14.611"/>
		<path fill="none" stroke="#1A953B" stroke-miterlimit="10" d="M709.084,147.851c0,0,8.703-4.566,6.449-11.808"/>
		<path fill="none" stroke="#1A953B" stroke-miterlimit="10" d="M714.865,149.138c0,0,10.76,1.474,13.846-5.85"/>
	</g>
</g>
<g>
	<path fill="#1A9568" d="M187.686-78.243c0,0-2.418-8.858,8.216-6.935c0,0-3.637-8.076,6.723-7.611
		c10.359,0.466,7.264,9.283,7.264,9.283s7.537-10.107,12.906-0.845c5.371,9.261-1.078,7.906-1.078,7.906s10.498-10.991,11.074,0.651
		c0.135,2.714-3.298,4.437-3.298,4.437s-12.126,6.411-16.077,0.414c0,0-15.124,6.466-22.461,1.2
		C183.616-75.008,187.686-78.243,187.686-78.243z"/>
	<path fill="none" stroke="#1A6A68" stroke-miterlimit="10" d="M206.983-71.978c0,0-13.022,0.367-14.491-8.045"/>
	<path fill="none" stroke="#1A6A68" stroke-miterlimit="10" d="M206.929-73.914c0,0-6.704-6.375-4.606-13.431"/>
	<path fill="none" stroke="#1A6A68" stroke-miterlimit="10" d="M210.801-74.023c0,0,8.02-2.867,6.957-9.354"/>
	<path fill="none" stroke="#1A6A68" stroke-miterlimit="10" d="M215.607-72.221c0,0,9.054,2.563,12.584-3.349"/>
</g>
<g>
	<path fill="#1A9568" d="M111.148-88.028c0,0-3.115-10.558,9.678-8.512c0,0-4.555-9.592,7.874-9.286
		c12.429,0.306,8.932,10.95,8.932,10.95s8.789-12.298,15.451-1.328c6.662,10.97-1.101,9.504-1.101,9.504s12.316-13.431,13.29,0.511
		c0.227,3.249-3.846,5.398-3.846,5.398s-14.379,7.979-19.26,0.886c0,0-17.972,8.119-26.894,1.985
		C106.349-84.051,111.148-88.028,111.148-88.028z"/>
	<path fill="none" stroke="#1A6A68" stroke-miterlimit="10" d="M134.431-80.988c0,0-15.6,0.757-17.566-9.291"/>
	<path fill="none" stroke="#1A6A68" stroke-miterlimit="10" d="M134.319-83.307c0,0-8.19-7.477-5.847-15.987"/>
	<path fill="none" stroke="#1A6A68" stroke-miterlimit="10" d="M138.957-83.532c0,0,9.543-3.632,8.112-11.38"/>
	<path fill="none" stroke="#1A6A68" stroke-miterlimit="10" d="M144.762-81.488c0,0,10.915,2.849,15.004-4.321"/>
</g>
<g>
	
		<radialGradient id="SVGID_24_" cx="78.3506" cy="-121.728" r="24.5683" fx="72.1458" fy="-121.396" gradientTransform="matrix(0.9954 0.0961 -0.0961 0.9954 -16.9865 -21.9317)" gradientUnits="userSpaceOnUse">
		<stop  offset="0" style="stop-color:#667C8D"/>
		<stop  offset="0.2399" style="stop-color:#627D90"/>
		<stop  offset="0.4647" style="stop-color:#578197"/>
		<stop  offset="0.6834" style="stop-color:#4487A5"/>
		<stop  offset="0.897" style="stop-color:#2A90B7"/>
		<stop  offset="1" style="stop-color:#1A95C2"/>
	</radialGradient>
	<path fill="url(#SVGID_24_)" d="M52.631-136.794c0,0-2.847-9.018,8.173-7.468c0,0-4.067-8.164,6.61-8.104
		c10.679,0.06,7.849,9.258,7.849,9.258s7.347-10.705,13.248-1.392c5.9,9.313-0.791,8.18-0.791,8.18s10.358-11.735,11.421,0.223
		c0.249,2.787-3.214,4.698-3.214,4.698s-12.219,7.087-16.527,1.075c0,0-15.302,7.266-23.064,2.144
		C48.574-133.301,52.631-136.794,52.631-136.794z"/>
	<path fill="none" stroke="#1A953B" stroke-miterlimit="10" d="M72.742-131.128c0,0-13.385,0.905-15.237-7.692"/>
	<path fill="none" stroke="#1A953B" stroke-miterlimit="10" d="M72.607-133.118c0,0-7.156-6.288-5.283-13.634"/>
	<path fill="none" stroke="#1A953B" stroke-miterlimit="10" d="M76.587-133.386c0,0,8.136-3.275,6.781-9.906"/>
</g>
<g>
	
		<radialGradient id="SVGID_25_" cx="450.5723" cy="-107.0386" r="27.1916" fx="443.705" fy="-106.671" gradientTransform="matrix(-0.9796 0.2009 0.2009 0.9796 515.4264 -63.7116)" gradientUnits="userSpaceOnUse">
		<stop  offset="0" style="stop-color:#667C8D"/>
		<stop  offset="0.2399" style="stop-color:#627D90"/>
		<stop  offset="0.4647" style="stop-color:#578197"/>
		<stop  offset="0.6834" style="stop-color:#4487A5"/>
		<stop  offset="0.897" style="stop-color:#2A90B7"/>
		<stop  offset="1" style="stop-color:#1A95C2"/>
	</radialGradient>
	<path fill="url(#SVGID_25_)" d="M74.482-81.745c0,0,2.079-10.258-9.87-7.261c0,0,3.521-9.46-8.223-8.144
		c-11.747,1.316-7.555,11.108-7.555,11.108s-9.339-10.922-14.743,0.019c-5.403,10.941,1.827,8.911,1.827,8.911
		s-12.774-11.703-12.542,1.581c0.051,3.097,4.087,4.794,4.087,4.794s14.276,6.369,18.316-0.752c0,0,17.691,6.205,25.631-0.34
		C79.357-78.376,74.482-81.745,74.482-81.745z"/>
	<path fill="none" stroke="#1A953B" stroke-miterlimit="10" d="M53.014-73.152c0,0,14.835-0.574,15.866-10.251"/>
	<path fill="none" stroke="#1A953B" stroke-miterlimit="10" d="M52.927-75.358c0,0,7.139-7.758,4.219-15.624"/>
	<path fill="none" stroke="#1A953B" stroke-miterlimit="10" d="M48.516-75.188c0,0-9.335-2.652-8.623-10.108"/>
</g>
<g>
	
		<radialGradient id="SVGID_26_" cx="228.333" cy="-89.2446" r="16.2161" fx="224.2376" fy="-89.0254" gradientTransform="matrix(-0.9796 0.2009 0.2009 0.9796 515.4264 -63.7116)" gradientUnits="userSpaceOnUse">
		<stop  offset="0" style="stop-color:#667C8D"/>
		<stop  offset="0.2399" style="stop-color:#627D90"/>
		<stop  offset="0.4647" style="stop-color:#578197"/>
		<stop  offset="0.6834" style="stop-color:#4487A5"/>
		<stop  offset="0.897" style="stop-color:#2A90B7"/>
		<stop  offset="1" style="stop-color:#1A95C2"/>
	</radialGradient>
	<path fill="url(#SVGID_26_)" d="M286.906-107.47c0,0,1.24-6.118-5.886-4.331c0,0,2.101-5.642-4.903-4.857
		c-7.006,0.785-4.506,6.625-4.506,6.625s-5.57-6.514-8.792,0.011c-3.223,6.525,1.089,5.314,1.089,5.314s-7.617-6.979-7.479,0.943
		c0.03,1.847,2.438,2.859,2.438,2.859s8.515,3.798,10.923-0.449c0,0,10.551,3.7,15.285-0.203
		C289.813-105.461,286.906-107.47,286.906-107.47z"/>
	<path fill="none" stroke="#1A953B" stroke-miterlimit="10" d="M274.104-102.346c0,0,8.848-0.342,9.462-6.114"/>
	<path fill="none" stroke="#1A953B" stroke-miterlimit="10" d="M274.052-103.662c0,0,4.258-4.626,2.517-9.317"/>
	<path fill="none" stroke="#1A953B" stroke-miterlimit="10" d="M271.422-103.56c0,0-5.568-1.582-5.143-6.028"/>
</g>
<g>
	
		<radialGradient id="SVGID_27_" cx="655.0146" cy="4.9072" r="72.8845" gradientTransform="matrix(0.9629 0.2697 -0.2697 0.9629 -366.4361 -76.4255)" gradientUnits="userSpaceOnUse">
		<stop  offset="0" style="stop-color:#4C7201"/>
		<stop  offset="1" style="stop-color:#1F6520"/>
	</radialGradient>
	<path fill="url(#SVGID_27_)" d="M258.132,7.377c0,0-18.583,15.77-23.096,33.984c-4.511,18.214,1.269,18.655,7.478,11.244
		c6.206-7.411,4.78,18.75-10.218,32.255c-14.998,13.507-26.003,35.805-9.051,26.979c16.952-8.828,9.091,10.808-2.491,20.55
		c-11.582,9.74-5.763,33.21,4.551,19.572c10.313-13.637,6.393,13.006,1.356,20.447c-5.038,7.444-19.705,25.173-1.632,9.577
		c18.071-15.596,18.248-26.762,22.78-26.083c4.531,0.681-3.349,1.424,10.749,10.095c14.098,8.671,36.253,5.434,34.108-1.661
		c-2.145-7.093,4.315-11.187-10.068-14.625c-14.385-3.439-13.179-11.955-3.567-10.442c9.61,1.51,19.461,4.269,0.002-14.757
		c-19.462-19.027-19.24-36.673-11.688-25.703c7.551,10.968,25.327,6.506,7.947-17.842c-17.378-24.347-16.635-31.22-9.65-24.542
		c6.981,6.678,17.927-5.003,6.667-23.803C261.051,13.823,254.315,23.108,258.132,7.377z"/>
	<g>
		<path fill="#72A454" d="M304.948,264.141c0,0,39.186-47.813,22.355-67.946c-16.832-20.129-17.646,3.292-17.646,3.292
			s7.615-20.05,6.709-34.922c-0.905-14.868-15.316-23.712-14.992-38.613c0.321-14.899,8.989-34.271-1.035-38.976
			s-13.296-21.639-22.984-12.17c-9.682,9.469-23.052,13.362-24.903,24.046c-1.85,10.686,2.659,20.497,0.733,28.347
			c-1.924,7.851-10.522,4.528-3.573,26.331c6.945,21.803-15.646-1.723-23.949,6.294c-8.303,8.014-16.097,8.216-4.264,27.057
			c11.836,18.84,21.429,33.482,17.328,39.263c-4.106,5.781-13.1-13.136-22.46-18.567c-9.364-5.429-17.143-4.521-15.339,10.326
			c1.802,14.845-2.582,9.994,11.398,29.488c13.979,19.494,17.667,25.068,12.89,32.287c-4.776,7.211-34.475,37.767-2.097,28.419
			c32.379-9.346,35.835-12.785,34.762,0.616c-1.07,13.403-0.273,16.93-4.244,27.667c-3.981,10.742-6.394,27.112,2.582,17.661
			c8.972-9.45,10.328-45.648,12.021-59.167c1.696-13.517-1.92-16.262,12.363-12.375c14.284,3.886,3.366,20.479,25.134,12.114
			c21.767-8.359,36.975-23.646,33.956-30.661C336.674,256.939,315.272,279.477,304.948,264.141z"/>
		<path fill="#4A8336" d="M263.22,284.301c0,0,10.533-39.981,10.164-54.157c-0.368-14.172-0.725-50.33,1.836-63.161
			c2.556-12.83,6.659-40.592,5.728-50.496c-0.932-9.904-5.404-16.407-5.953,2.896s0.578,21.846-3.957,39.323
			c-4.531,17.475-2.161,53.742-1.805,64.825c0.354,11.079,0.439,14.292-2.405,25.938c-2.844,11.648-10.27,28.596-9.054,34.975
			C258.985,290.822,263.22,284.301,263.22,284.301z"/>
	</g>
	<g>
		
			<radialGradient id="SVGID_28_" cx="-4.5054" cy="161.9277" r="40.3483" fx="-14.6954" fy="162.4731" gradientTransform="matrix(-0.8069 -0.5906 -0.5906 0.8069 377.7273 123.7346)" gradientUnits="userSpaceOnUse">
			<stop  offset="0" style="stop-color:#2B7C23"/>
			<stop  offset="0.2726" style="stop-color:#2F7B23"/>
			<stop  offset="0.528" style="stop-color:#3A7622"/>
			<stop  offset="0.7755" style="stop-color:#4D6F21"/>
			<stop  offset="1" style="stop-color:#656520"/>
		</radialGradient>
		<path fill="url(#SVGID_28_)" d="M286.109,284.416c0,0,30.077-13.676,22.112-50.572c-7.968-36.897-1.994-32.526,0.567-35.238
			c2.559-2.714-44.604,24.121-41.01,50.542c3.595,26.418,11.533,32.803,12.646,36.771c1.109,3.963-3.708,11.33-4.828,10.511
			C274.475,295.612,279.215,303.234,286.109,284.416z"/>
		<path fill="#1A953B" d="M283.162,274.76c-0.07-0.318-6.791-32.161,9.188-54.269l0.811,0.586
			c-15.714,21.74-9.091,53.154-9.022,53.47L283.162,274.76z"/>
	</g>
	<g>
		<radialGradient id="SVGID_29_" cx="59.5278" cy="367.4868" r="4.7859" gradientUnits="userSpaceOnUse">
			<stop  offset="0" style="stop-color:#667C8D"/>
			<stop  offset="0.2399" style="stop-color:#627D90"/>
			<stop  offset="0.4647" style="stop-color:#578197"/>
			<stop  offset="0.6834" style="stop-color:#4487A5"/>
			<stop  offset="0.897" style="stop-color:#2A90B7"/>
			<stop  offset="1" style="stop-color:#1A95C2"/>
		</radialGradient>
		<path fill="url(#SVGID_29_)" d="M53.12,369.262c0,0,9.421,2.271,12.815-3.955"/>
		<path fill="#1A953B" d="M57.03,370.18c-2.177,0-3.863-0.393-4.027-0.432l0.234-0.973c0.091,0.023,9.09,2.104,12.26-3.708
			l0.878,0.479C64.29,369.371,60.155,370.18,57.03,370.18z"/>
	</g>
	
		<image overflow="visible" width="1371" height="1486" xlink:href="../../../20200513/새 폴더 (2)/새 폴더 (1)/새 폴더/Desktop/main/images/aboutme.png"  transform="matrix(0.1844 0 0 0.1844 49.6675 94.5522)">
	</image>
	<g>
		<path fill="#1A9568" d="M6.714,357.098c0,0-7.47-17.05,14.426-16.337c0,0-9.679-15.121,11.234-17.251
			c20.914-2.129,17.311,16.47,17.311,16.47s12.128-22.499,25.637-5.511c13.508,16.986,0.173,16.177,0.173,16.177
			s17.805-25.146,22.402-1.967c1.072,5.403-5.303,9.873-5.303,9.873s-22.426,16.441-32.122,5.58c0,0-28.422,17.439-44.692,9.046
			C-0.492,364.789,6.714,357.098,6.714,357.098z"/>
		<path fill="#1A6A68" d="M39.572,365.016c-8.27,0-20.637-1.909-24.221-12.751l0.949-0.314c5.24,15.844,30.626,11.561,30.881,11.516
			l0.174,0.984C47.262,364.467,44.005,365.016,39.572,365.016z"/>
		<path fill="#1A6A68" d="M46.298,360.501c-0.156-0.11-15.555-11.151-13.415-26.056l0.99,0.143
			c-2.053,14.293,12.85,24.989,13,25.096L46.298,360.501z"/>
		<path fill="#1A6A68" d="M54.555,359.17l-0.471-0.883c0.148-0.079,14.82-8.077,10.947-20.221l0.953-0.305
			C70.111,350.704,54.71,359.087,54.555,359.17z"/>
		<path fill="#1A6A68" d="M67.979,361.595c-2.114,0-3.501-0.169-3.553-0.176l0.129-0.992c0.183,0.025,18.598,2.258,23.725-10.134
			l0.924,0.383C85.224,360.298,73.827,361.595,67.979,361.595z"/>
	</g>
	<g>
		
			<radialGradient id="SVGID_30_" cx="162.5967" cy="409.9116" r="24.568" fx="156.392" fy="410.2437" gradientTransform="matrix(0.9866 0.1631 -0.1631 0.9866 -7.7055 -65.2553)" gradientUnits="userSpaceOnUse">
			<stop  offset="0" style="stop-color:#667C23"/>
			<stop  offset="0.2399" style="stop-color:#627D23"/>
			<stop  offset="0.4647" style="stop-color:#578122"/>
			<stop  offset="0.6834" style="stop-color:#448722"/>
			<stop  offset="0.897" style="stop-color:#2A9021"/>
			<stop  offset="1" style="stop-color:#1A9520"/>
		</radialGradient>
		<path fill="url(#SVGID_30_)" d="M65.931,363.099c0,0-2.233-9.189,8.658-6.898c0,0-3.507-8.42,7.142-7.641
			c10.651,0.78,7.207,9.767,7.207,9.767s8.053-10.186,13.312-0.495c5.258,9.689-1.341,8.108-1.341,8.108s11.126-11.01,11.381,0.992
			c0.06,2.797-3.524,4.471-3.524,4.471s-12.669,6.247-16.562-0.042c0,0-15.757,6.217-23.156,0.583
			C61.647,366.311,65.931,363.099,65.931,363.099z"/>
		<path fill="#1A953B" d="M85.613,370.61c-0.565,0-13.863-0.104-15.179-9.131l0.989-0.145c1.191,8.171,14.06,8.275,14.189,8.275
			V370.61z"/>
		<path fill="#1A953B" d="M85.259,368.468c-0.283-0.285-6.903-7.06-4.472-14.469l0.95,0.313c-2.239,6.822,4.166,13.386,4.231,13.451
			L85.259,368.468z"/>
		<path fill="#1A953B" d="M89.757,368.591l-0.311-0.951c0.079-0.025,7.932-2.674,7.093-8.885l0.991-0.133
			C98.481,365.661,89.844,368.563,89.757,368.591z"/>
		<path fill="#1A953B" d="M99.492,371.329c-2.716,0-4.956-0.683-5.145-0.741l0.299-0.955c0.089,0.028,8.928,2.713,12.481-2.873
			l0.844,0.537C105.912,370.533,102.425,371.329,99.492,371.329z"/>
	</g>
	<g>
		
			<radialGradient id="SVGID_31_" cx="51.3833" cy="581.1958" r="40.3478" fx="41.1934" fy="581.7411" gradientTransform="matrix(-0.9586 0.2847 0.2847 0.9586 -14.7752 -226.7112)" gradientUnits="userSpaceOnUse">
			<stop  offset="0" style="stop-color:#2B7C23"/>
			<stop  offset="0.2726" style="stop-color:#2F7B23"/>
			<stop  offset="0.528" style="stop-color:#3A7622"/>
			<stop  offset="0.7755" style="stop-color:#4D6F21"/>
			<stop  offset="1" style="stop-color:#656520"/>
		</radialGradient>
		<path fill="url(#SVGID_31_)" d="M123.458,361.31c0,0,7.322-32.219-26.868-48.215c-34.191-15.995-27.096-18.103-27.704-21.782
			c-0.611-3.681-7.802,50.104,15.403,63.236c23.204,13.13,33.092,10.678,36.923,12.194c3.827,1.516,6.773,9.811,5.443,10.205
			C125.326,377.349,134.263,378.189,123.458,361.31z"/>
		<path fill="#1A953B" d="M113.988,357.811c-0.296-0.138-29.709-14.065-37.631-40.166l0.957-0.291
			c7.794,25.678,36.804,39.415,37.096,39.551L113.988,357.811z"/>
	</g>
	<g>
		
			<radialGradient id="SVGID_32_" cx="477.1807" cy="344.9409" r="13.3444" fx="473.8105" fy="345.1213" gradientTransform="matrix(-0.9796 0.2009 0.2009 0.9796 515.4264 -63.7116)" gradientUnits="userSpaceOnUse">
			<stop  offset="0" style="stop-color:#667C8D"/>
			<stop  offset="0.2399" style="stop-color:#627D90"/>
			<stop  offset="0.4647" style="stop-color:#578197"/>
			<stop  offset="0.6834" style="stop-color:#4487A5"/>
			<stop  offset="0.897" style="stop-color:#2A90B7"/>
			<stop  offset="1" style="stop-color:#1A95C2"/>
		</radialGradient>
		<path fill="url(#SVGID_32_)" d="M128.052,368.251c0,0,1.02-5.034-4.844-3.563c0,0,1.728-4.643-4.035-3.998
			c-5.765,0.647-3.708,5.452-3.708,5.452s-4.583-5.359-7.235,0.01c-2.652,5.368,0.897,4.372,0.897,4.372s-6.27-5.743-6.156,0.776
			c0.026,1.52,2.006,2.353,2.006,2.353s7.006,3.127,8.987-0.369c0,0,8.682,3.045,12.579-0.167
			C130.444,369.905,128.052,368.251,128.052,368.251z"/>
		<path fill="#1A953B" d="M117.537,372.969l-0.039-1c0.068-0.002,6.854-0.323,7.308-4.583l0.994,0.105
			C125.254,372.611,117.852,372.957,117.537,372.969z"/>
		<path fill="#1A953B" d="M117.843,371.725l-0.736-0.677c0.033-0.036,3.277-3.634,1.969-7.155l0.938-0.348
			C121.535,367.645,117.994,371.56,117.843,371.725z"/>
		<path fill="#1A953B" d="M115.173,371.951c-1.723-0.489-4.901-2.267-4.592-5.489l0.995,0.096c-0.307,3.207,3.829,4.419,3.871,4.431
			L115.173,371.951z"/>
	</g>
	<g>
		
			<radialGradient id="SVGID_33_" cx="-278.1021" cy="565.2271" r="20.2119" fx="-283.2066" fy="565.5002" gradientTransform="matrix(-0.9927 -0.121 -0.121 0.9927 -108.84 -290.5986)" gradientUnits="userSpaceOnUse">
			<stop  offset="0" style="stop-color:#2B7C23"/>
			<stop  offset="0.2726" style="stop-color:#2F7B23"/>
			<stop  offset="0.528" style="stop-color:#3A7622"/>
			<stop  offset="0.7755" style="stop-color:#4D6F21"/>
			<stop  offset="1" style="stop-color:#656520"/>
		</radialGradient>
		<path fill="url(#SVGID_33_)" d="M105.705,315.983c0,0,9.797-13.34-2.716-27.516c-12.515-14.176-8.834-13.728-8.379-15.539
			c0.454-1.813-13.589,21.462-5.55,32.128c8.038,10.665,13.071,11.513,14.528,12.976c1.455,1.458,1.152,5.859,0.462,5.774
			C103.36,323.725,107.297,325.895,105.705,315.983z"/>
		<path fill="#1A953B" d="M101.865,312.651c-0.109-0.123-10.914-12.48-9.329-26.163l0.993,0.115
			c-1.533,13.233,8.977,25.264,9.083,25.384L101.865,312.651z"/>
	</g>
	<g>
		
			<radialGradient id="SVGID_34_" cx="-131.1943" cy="19.4097" r="30.9148" gradientTransform="matrix(-0.6218 -0.836 0.9472 -0.5488 82.0212 269.414)" gradientUnits="userSpaceOnUse">
			<stop  offset="0" style="stop-color:#066301"/>
			<stop  offset="1" style="stop-color:#4C6520"/>
		</radialGradient>
		<path fill="url(#SVGID_34_)" d="M216.634,366.636c0,0-13.704,23.361-46.582,15.53c-32.875-7.83-29.212-2.905-31.773-0.979
			c-2.563,1.925,23.782-34.486,47.42-30.558c23.638,3.93,29.024,10.502,32.549,11.547c3.518,1.043,10.379-2.49,9.69-3.413
			C227.255,357.84,233.904,361.918,216.634,366.636z"/>
		<path fill="#1A953B" d="M157.168,370.164l-0.815-0.578c6.103-8.592,29.274-6.413,30.257-6.316l-0.098,0.996
			C186.277,364.24,162.935,362.043,157.168,370.164z"/>
		
			<radialGradient id="SVGID_35_" cx="310.5479" cy="281.4106" r="58.0302" gradientTransform="matrix(-1.1087 0.2063 0.2337 0.9785 575.7626 -18.1234)" gradientUnits="userSpaceOnUse">
			<stop  offset="0" style="stop-color:#4C7201"/>
			<stop  offset="1" style="stop-color:#1F6520"/>
		</radialGradient>
		<path fill="url(#SVGID_35_)" d="M307.349,244c0,0,15.799,13.495,18.788,28.2c2.989,14.706-2.24,14.756-7.392,8.545
			s-5.408,14.648,7.297,26.158c12.706,11.511,21.3,29.798,6.559,21.904c-14.739-7.895-8.82,8.115,1.032,16.456
			s3.231,26.686-5.249,15.314c-8.481-11.372-6.521,10-2.426,16.175c4.096,6.175,16.256,21.023,0.904,7.694
			c-15.35-13.331-14.851-22.212-18.97-21.907c-4.12,0.305,2.931,1.305-10.271,7.46c-13.2,6.157-32.955,2.434-30.606-3.091
			c2.348-5.524-3.225-9.113,9.925-11.097c13.152-1.984,12.568-8.813,3.827-8.111s-17.771,2.381,0.866-11.723
			c18.642-14.105,19.481-28.137,12.036-19.813c-7.443,8.321-23.183,3.852-6.104-14.589c17.078-18.439,16.813-23.939,10.134-18.997
			s-15.844-4.906-4.6-19.258C304.343,248.97,309.858,256.698,307.349,244z"/>
		
			<radialGradient id="SVGID_36_" cx="247.377" cy="329.7085" r="45.2837" gradientTransform="matrix(1.1255 0.1154 -0.1307 0.9933 -10.3578 -21.5792)" gradientUnits="userSpaceOnUse">
			<stop  offset="0" style="stop-color:#747201"/>
			<stop  offset="1" style="stop-color:#516520"/>
		</radialGradient>
		<path fill="url(#SVGID_36_)" d="M200.274,319.929c-1.377-1.532-14.485-21.479,8.677-29.77c23.16-8.292,16.64,13.3,16.64,13.3
			s8.968-16.238,26.221-3.571c17.247,12.666,15.066,21.254,12.63,23.786c-2.435,2.533,16.712,0.787,10.916,16.888
			c-5.8,16.101-24.97,22.021-33.64,16.029c-8.67-5.989,4.743,27.849-27.101,22.266c-31.847-5.584-23.325-17.232-24.434-23.375
			c-1.109-6.143-23.463-7.971-14.508-32.097C184.63,299.26,200.274,319.929,200.274,319.929z"/>
		<path fill="#545E36" d="M218.71,330.042c0,0,3.553-4.679,6.737,0.691c3.18,5.37-4.359,8.379-7.801,7.396
			C214.203,337.146,218.71,330.042,218.71,330.042z"/>
		<path fill="#72A454" d="M241.984,349.361c0,0-10.026-25.872,1.401-31.612c11.43-5.741,7.71,4.091,7.71,4.091
			s-0.064-9.486,2.965-15.51c3.029-6.021,11.343-7.459,13.802-13.685c2.458-6.225,1.779-15.591,7.311-15.993
			c5.531-0.4,10.032-6.912,12.922-1.49c2.89,5.42,8.486,9.1,7.484,13.813c-1.003,4.715-4.838,8.084-5.308,11.634
			c-0.471,3.551,4.147,3.503-2.933,11.465c-7.08,7.961,7.648,1.704,10.144,6.31c2.494,4.604,6.12,5.893-2.736,11.871
			c-8.856,5.979-15.926,10.565-15.012,13.594c0.916,3.03,8.451-3.419,13.798-4.223c5.348-0.804,8.84,0.775,5.395,6.649
			c-3.446,5.874-0.539,4.54-10.518,10.459c-9.978,5.918-12.685,7.659-11.706,11.389c0.979,3.728,9.576,20.979-3.99,12.102
			c-13.568-8.878-14.589-10.837-16.432-5.118c-1.845,5.722-2.836,7.059-2.851,12.123c-0.013,5.066-1.747,12.225-4.306,6.92
			c-2.559-5.304,3.143-20.515,4.716-26.378c1.57-5.864,3.748-6.442-3.638-7.039c-7.389-0.598-5.169,7.966-13.925,1.136
			c-8.757-6.829-13.22-15.515-10.574-17.955C228.349,341.472,234.452,354.121,241.984,349.361z"/>
		<path fill="#4A8336" d="M258.05,364.166c0,0,2.055-18.198,4.71-24.016c2.655-5.816,9.153-20.745,10.198-26.459
			c1.046-5.712,3.98-17.852,6.152-21.812c2.172-3.961,5.411-5.964,2.289,2.12c-3.123,8.084-4.097,8.964-5.027,16.907
			c-0.934,7.943-8.396,22.606-10.505,27.144c-2.106,4.537-2.709,5.856-3.413,11.122c-0.703,5.267-0.185,13.438-1.872,15.894
			C258.895,367.521,258.05,364.166,258.05,364.166z"/>
		<path fill="#A4A454" d="M233.66,366.203c0,0-8.812-4.512-7.378-8.112c1.432-3.601,2.911-0.452,2.911-0.452
			s-2.335-2.342-3.055-4.413s0.993-4.012,0.081-6.024c-0.911-2.013-3.37-4.208-2.095-5.361c1.274-1.151,0.8-3.625,2.842-2.83
			s4.331,0.644,5.235,2.004c0.902,1.36,0.773,2.927,1.526,3.897c0.75,0.971,1.885,0.08,2.073,3.403
			c0.19,3.324,2.314-1.033,4.059-0.366c1.746,0.669,2.959,0.298,2.225,3.469c-0.737,3.17-1.37,5.653-0.403,6.231
			c0.968,0.576,1.261-2.458,2.391-3.675c1.133-1.218,2.385-1.491,2.964,0.622c0.582,2.114,0.977,1.229-0.052,4.599
			c-1.029,3.368-1.276,4.315-0.121,5.054c1.154,0.739,7.504,3.384,1.967,3.764c-5.536,0.381-6.268,0.089-5.327,1.858
			c0.939,1.771,1.021,2.292,2.254,3.552c1.237,1.26,2.556,3.365,0.623,2.537c-1.931-0.829-4.234-5.689-5.277-7.443
			c-1.043-1.756-0.644-2.313-2.622-1.055c-1.98,1.258,0.664,2.96-3.179,2.933s-7.073-1.334-7.012-2.443
			C228.349,366.841,232.955,368.818,233.66,366.203z"/>
		<path fill="#5E8336" d="M241.267,366.819c0,0-3.938-4.908-4.701-6.857s-2.799-6.892-3.938-8.508
			c-1.136-1.617-3.376-5.188-3.804-6.584c-0.43-1.396-0.115-2.511,1.086,0.09s1.174,3.005,2.886,5.153
			c1.71,2.149,3.441,7.209,4.026,8.735c0.588,1.528,0.761,1.97,1.871,3.411c1.113,1.44,3.24,3.369,3.422,4.3
			S241.267,366.819,241.267,366.819z"/>
		<g>
			
				<radialGradient id="SVGID_37_" cx="-165.5996" cy="81.667" r="32.1243" fx="-173.7126" fy="82.1012" gradientTransform="matrix(0.0337 -0.9996 -1.1326 -0.0297 428.0873 194.0957)" gradientUnits="userSpaceOnUse">
				<stop  offset="0" style="stop-color:#2B7C23"/>
				<stop  offset="0.2726" style="stop-color:#2F7B23"/>
				<stop  offset="0.528" style="stop-color:#3A7622"/>
				<stop  offset="0.7755" style="stop-color:#4D6F21"/>
				<stop  offset="1" style="stop-color:#656520"/>
			</radialGradient>
			<path fill="url(#SVGID_37_)" d="M309.873,369.784c0,0,25.537,13.567,48.898-8.297c23.361-21.866,23.163-15.977,26.488-15.518
				c3.325,0.455-40.724-18.39-58.529-4.118c-17.806,14.272-18.496,22.361-20.877,24.879c-2.379,2.516-10.319,2.677-10.281,1.572
				C295.604,367.198,292.36,373.746,309.873,369.784z"/>
			<path fill="#1A953B" d="M316.219,364.131l-0.686-0.729c0.199-0.188,19.908-18.463,44.058-18.463c0.332,0,0.664,0.004,0.998,0.011
				l-0.021,1c-0.326-0.007-0.654-0.011-0.979-0.011C335.832,345.94,316.415,363.947,316.219,364.131z"/>
		</g>
		<g>
			
				<radialGradient id="SVGID_38_" cx="377.2842" cy="392.8726" r="19.5607" fx="372.3441" fy="393.137" gradientTransform="matrix(1.1179 0.1631 -0.1848 0.9866 -25.2475 -65.2553)" gradientUnits="userSpaceOnUse">
				<stop  offset="0" style="stop-color:#667C23"/>
				<stop  offset="0.2399" style="stop-color:#627D23"/>
				<stop  offset="0.4647" style="stop-color:#578122"/>
				<stop  offset="0.6834" style="stop-color:#448722"/>
				<stop  offset="0.897" style="stop-color:#2A9021"/>
				<stop  offset="1" style="stop-color:#1A9520"/>
			</radialGradient>
			<path fill="url(#SVGID_38_)" d="M305.939,381.822c0,0-2.015-7.315,7.81-5.492c0,0-3.165-6.704,6.443-6.083
				c9.607,0.621,6.5,7.775,6.5,7.775s7.266-8.109,12.01-0.395c4.743,7.715-1.209,6.457-1.209,6.457s10.036-8.767,10.267,0.789
				c0.055,2.227-3.18,3.56-3.18,3.56s-11.429,4.974-14.94-0.033c0,0-14.215,4.95-20.889,0.464
				C302.073,384.379,305.939,381.822,305.939,381.822z"/>
			<path fill="#1A953B" d="M323.694,387.904c-0.512,0-12.539-0.085-13.739-7.349l0.986-0.162c1.063,6.436,12.636,6.511,12.753,6.511
				V387.904z"/>
			<path fill="#1A953B" d="M323.362,386.19c-0.258-0.229-6.289-5.676-4.063-11.662l0.938,0.348
				c-1.987,5.342,3.731,10.516,3.789,10.566L323.362,386.19z"/>
			<path fill="#1A953B" d="M327.432,386.296l-0.277-0.961c0.071-0.021,7.091-2.108,6.351-6.95l0.988-0.15
				C335.366,383.944,327.756,386.203,327.432,386.296z"/>
			<path fill="#1A953B" d="M336.203,388.474c-2.445,0-4.459-0.541-4.629-0.589l0.267-0.964c0.081,0.023,8.048,2.158,11.237-2.264
				l0.811,0.584C342.019,387.837,338.856,388.474,336.203,388.474z"/>
		</g>
	</g>
	<g>
		
			<radialGradient id="SVGID_39_" cx="74.0879" cy="461.7417" r="24.5691" fx="67.8829" fy="462.0738" gradientTransform="matrix(-0.9952 0.0983 0.0983 0.9952 165.943 -88.8202)" gradientUnits="userSpaceOnUse">
			<stop  offset="0" style="stop-color:#667C23"/>
			<stop  offset="0.2399" style="stop-color:#627D23"/>
			<stop  offset="0.4647" style="stop-color:#578122"/>
			<stop  offset="0.6834" style="stop-color:#448722"/>
			<stop  offset="0.897" style="stop-color:#2A9021"/>
			<stop  offset="1" style="stop-color:#1A9520"/>
		</radialGradient>
		<path fill="url(#SVGID_39_)" d="M157.668,376.692c0,0,2.828-9.024-8.189-7.45c0,0,4.05-8.172-6.627-8.09
			c-10.679,0.084-7.829,9.275-7.829,9.275s-7.372-10.69-13.252-1.363c-5.879,9.325,0.808,8.18,0.808,8.18
			s-10.383-11.713-11.422,0.246c-0.243,2.786,3.226,4.692,3.226,4.692s12.235,7.06,16.529,1.038c0,0,15.318,7.231,23.068,2.095
			C161.733,380.176,157.668,376.692,157.668,376.692z"/>
		<path fill="#1A953B" d="M138.708,382.931c-0.655,0-1.08-0.025-1.171-0.031l0.065-0.998c0.131,0.008,12.977,0.747,14.698-7.329
			l0.978,0.209C151.685,382.258,142.102,382.931,138.708,382.931z"/>
		<path fill="#1A953B" d="M138.032,380.788l-0.662-0.75c0.069-0.061,6.888-6.193,5.099-13.146l0.969-0.25
			C145.38,374.193,138.333,380.522,138.032,380.788z"/>
		<path fill="#1A953B" d="M133.534,380.617c-0.085-0.034-8.515-3.494-7.106-10.456l0.98,0.199c-1.245,6.153,6.42,9.298,6.497,9.329
			L133.534,380.617z"/>
		<path fill="#1A953B" d="M124.759,382.749c-3.121,0-7.231-0.81-9.316-4.615l0.877-0.48c3.18,5.808,12.175,3.705,12.267,3.683
			l0.236,0.972C128.658,382.348,126.954,382.749,124.759,382.749z"/>
	</g>
	<path fill="#5B9736" d="M157.478,93.074c-16.533-0.833-31.618,13.122-42.516,23.933c-5.523,5.479-10.218,11.163-13.901,18.045
		c-4.187,7.823-7.103,16.338-10.184,24.633c-3.92,10.552-8.448,20.16-14.102,29.881c-4.788,8.232-9.592,17.022-10.527,26.668
		c-0.743,7.662,11.816,31.898-1.436,32.841c-3.183,0.227-3.256,4.974,0,5c6.705,0.055,13.369,0.517,19.998-0.755
		c-1.025-0.582-2.05-1.164-3.075-1.746c1.171,2.848,1.226,5.597-2.254,6.924c-2.119,0.809-2.635,4.249,0,4.822
		c7.567,1.644,15.013,2.255,20.157-4.483c-1.523-0.199-3.046-0.398-4.569-0.597c0.289,1.915,1.609,4.046,1.333,6.004
		c-0.187,1.328,0.302,2.707,1.746,3.076c4.234,1.081,7.993,0.978,11.942-0.96c3.896-1.912,6.67-5.313,10.876-6.739
		c9.591-3.256,8.685,15.369,6.354,20.026c-1.438,2.874,2.874,5.407,4.317,2.523c3.65-7.295,4.042-20.406-3.195-25.834
		c-3.949-2.962-8.385-2.061-12.518,0.018c-6.023,3.027-8.901,8.072-16.448,6.144c0.582,1.025,1.164,2.051,1.746,3.076
		c0.443-3.148-0.874-5.62-1.333-8.664c-0.366-2.424-3.447-2.066-4.569-0.597c-3.535,4.63-9.615,3.248-14.51,2.185
		c0,1.607,0,3.215,0,4.822c5.671-2.165,8.102-7.346,5.746-13.076c-0.551-1.34-1.607-2.027-3.075-1.746
		c-6.155,1.182-12.444,0.628-18.668,0.577c0,1.667,0,3.333,0,5c14.609-1.039,10.984-16.264,8.463-26.205
		c-0.788-3.106-1.658-6.237-1.985-9.434c-0.438-4.267,1.27-8.733,2.763-12.646c3.952-10.355,10.89-19.387,15.643-29.371
		c7.731-16.24,10.598-35.994,22.972-49.749c6.124-6.807,12.825-13.186,20.163-18.67c7.034-5.257,15.566-10.384,24.648-9.926
		C160.702,98.236,160.687,93.235,157.478,93.074L157.478,93.074z"/>
	<path fill="#AB9736" d="M131.339,265.132c0.987,3.963,1.619,7.638,0.624,11.67c-1.015,4.111-4.55,7.228-7.543,9.96
		c-4.705,4.293-8.4,8.607-11.396,14.251c-4.74,8.927-7.688,21.091,0.519,28.908c2.333,2.223,5.874-1.308,3.535-3.535
		c-8.992-8.567-0.291-24.751,6.552-32.058c3.922-4.188,8.48-7.375,11.529-12.35c3.412-5.566,2.491-12.199,1.002-18.177
		C135.381,260.675,130.56,262.002,131.339,265.132L131.339,265.132z"/>
	<radialGradient id="SVGID_40_" cx="202.1494" cy="178.2422" r="72.8194" gradientUnits="userSpaceOnUse">
		<stop  offset="0" style="stop-color:#4C7201"/>
		<stop  offset="1" style="stop-color:#1F6520"/>
	</radialGradient>
	<path fill="url(#SVGID_40_)" d="M149.762,99.126c18.067-11.35,41.458-3.206,57.438,8.136c9.385,6.66,17.358,15.961,23.226,25.783
		c6.47,10.832,8.534,23.588,10.858,35.806c2.257,11.86,4.974,23.535,7.994,35.221c3.09,11.951,6.496,26.389,1.367,38.274
		c-4.466,10.35-16.215,9.146-25.364,8.218c-10.649-1.081-13.386,6.436-18.938,13.642c-1.969,2.554,2.379,5.039,4.316,2.523
		c3.361-4.361,5.33-10.89,11.698-11.362c5.587-0.414,10.829,1.61,16.547,0.662c8.956-1.486,15.052-6.793,17.666-15.498
		c3.667-12.207,0.561-25.819-2.47-37.788c-3.556-14.042-6.54-28.084-9.366-42.289c-2.57-12.92-6.135-24.715-13.667-35.652
		c-6.281-9.121-14.468-17.198-23.61-23.435c-16.972-11.576-41.667-18.211-60.218-6.558
		C144.516,96.519,147.023,100.847,149.762,99.126L149.762,99.126z"/>
	<g>
		<g>
			<path fill="#AB9736" d="M127,364.467c3.224,0,3.224-5,0-5S123.776,364.467,127,364.467L127,364.467z"/>
		</g>
	</g>
	<g>
		<path fill="#AB9736" d="M17,365.967"/>
	</g>
	<ellipse fill="#AB9736" cx="34.458" cy="295.842" rx="3.659" ry="4.771"/>
	<ellipse fill="#AB9736" cx="23.374" cy="318.67" rx="11.084" ry="11.93"/>
	<ellipse fill="#AB9736" cx="255.594" cy="291.133" rx="8.483" ry="9.131"/>
	<ellipse fill="#FFFFFF" cx="202.115" cy="185.156" rx="0.427" ry="0.625"/>
	<ellipse fill="#FFFFFF" cx="145.461" cy="188.426" rx="0.305" ry="0.708"/>
</g>
</svg>
