<svg version="1.1" id="Layer_1" xmlns="http://www.w3.org/2000/svg" xmlns:xlink="http://www.w3.org/1999/xlink" x="0px" y="0px"
	 width="274px" height="384px" viewBox="0 0 274 384" enable-background="new 0 0 274 384" xml:space="preserve">
<linearGradient id="SVGID_1_" gradientUnits="userSpaceOnUse" x1="17.0938" y1="314.166" x2="284.5939" y2="92.1659">
	<stop  offset="0" style="stop-color:#E95C96"/>
	<stop  offset="0.6075" style="stop-color:#FF9892"/>
	<stop  offset="1" style="stop-color:#FF8392"/>
</linearGradient>
<path fill="url(#SVGID_1_)" d="M88.349,340.426c0,0,52.07,18.935,68.639,23.077s56.805,28.403,87.574-4.733s5.325-94.082,0-99.408
	s-13.812-49.611-36.095-71.598c-8.179-8.07-18.343-15.385-18.343-15.385l23.126,3.371l2.909-3.371c0,0,3.312-4.967-8.762-8.324
	c-2.361-0.657-5.311-1.251-8.989-1.735c-4.446-1.053,11.403-11.218,8.121-16.948c-3.215-5.613-11.029,6.128-20.553,5.625
	c-6.5-0.344,6.514-13.149,11.024-13.496c7.692-0.592,13.243,21.269,22.118,11.802c4.81-5.131-4.417-24.432-18.417-24.432
	c-6.615,0,1.848-0.42,1.848-0.42s16.568-6.509,23.077-7.101s2.366-15.385-4.143-13.609s-13.609,2.367-13.609,2.367l7.692-5.325
	c0,0-4.734-5.326-7.692-5.326s-14.793,12.426-20.71,7.101C168,101,150.5,106,150.5,106s1.321-31.549-2.388-44.272
	C142.194,46.343,138.623,48.683,147,41c12.613-11.568,13.071-14.775,6.5-18.917s-20.182,17.16-20.182,17.16s0-15.976,10.06-20.118
	c-0.592-8.284-10.65-7.692-12.426-4.734s-13.61,7.1-19.526,27.811L99,23.858c0,0,0-8.875-10.651-2.367s-5.325,8.284-5.325,8.284
	s9.467,18.935,10.65,24.26C95.136,60.614,63.1,78.187,72,139.5c0,0-4.714-27.392-9.411-31.435
	c-3.87-3.332-16.475-4.804-23.839-1.315c-14.25,6.75-8.293,24.226-1.25,74.75c2.069,14.843-22,12.829-22,38.5
	c0,23.633,23.847,80.843,34,92c8,6,0.979,23.693-6.122,26.651c0,0,7.101,32.544,37.87,24.26L88.349,340.426z"/>
</svg>
